<mxfile host="app.diagrams.net" agent="Mozilla/5.0 (Windows NT 10.0; Win64; x64) AppleWebKit/537.36 (KHTML, like Gecko) Chrome/127.0.0.0 Safari/537.36" version="24.7.6">
  <diagram id="C5RBs43oDa-KdzZeNtuy" name="Page-1">
    <mxGraphModel dx="1211" dy="547" grid="0" gridSize="10" guides="1" tooltips="1" connect="1" arrows="1" fold="1" page="1" pageScale="1" pageWidth="827" pageHeight="1169" math="0" shadow="0">
      <root>
        <mxCell id="WIyWlLk6GJQsqaUBKTNV-0" />
        <mxCell id="WIyWlLk6GJQsqaUBKTNV-1" parent="WIyWlLk6GJQsqaUBKTNV-0" />
        <mxCell id="v_3-qDZqE2zjvncGlJnI-43" style="edgeStyle=orthogonalEdgeStyle;rounded=0;orthogonalLoop=1;jettySize=auto;html=1;entryX=0.5;entryY=0;entryDx=0;entryDy=0;" edge="1" parent="WIyWlLk6GJQsqaUBKTNV-1" source="WIyWlLk6GJQsqaUBKTNV-3" target="v_3-qDZqE2zjvncGlJnI-36">
          <mxGeometry relative="1" as="geometry" />
        </mxCell>
        <mxCell id="WIyWlLk6GJQsqaUBKTNV-3" value="시작" style="rounded=1;whiteSpace=wrap;html=1;fontSize=12;glass=0;strokeWidth=1;shadow=0;" parent="WIyWlLk6GJQsqaUBKTNV-1" vertex="1">
          <mxGeometry x="289.91" y="197" width="90" height="40" as="geometry" />
        </mxCell>
        <mxCell id="v_3-qDZqE2zjvncGlJnI-3" style="edgeStyle=orthogonalEdgeStyle;rounded=0;orthogonalLoop=1;jettySize=auto;html=1;entryX=0.5;entryY=0;entryDx=0;entryDy=0;" edge="1" parent="WIyWlLk6GJQsqaUBKTNV-1" source="WIyWlLk6GJQsqaUBKTNV-6" target="v_3-qDZqE2zjvncGlJnI-1">
          <mxGeometry relative="1" as="geometry" />
        </mxCell>
        <mxCell id="v_3-qDZqE2zjvncGlJnI-5" value="YES" style="edgeLabel;html=1;align=center;verticalAlign=middle;resizable=0;points=[];" vertex="1" connectable="0" parent="v_3-qDZqE2zjvncGlJnI-3">
          <mxGeometry x="-0.3556" y="-2" relative="1" as="geometry">
            <mxPoint x="22" y="8" as="offset" />
          </mxGeometry>
        </mxCell>
        <mxCell id="v_3-qDZqE2zjvncGlJnI-19" style="edgeStyle=orthogonalEdgeStyle;rounded=0;orthogonalLoop=1;jettySize=auto;html=1;" edge="1" parent="WIyWlLk6GJQsqaUBKTNV-1" source="WIyWlLk6GJQsqaUBKTNV-6" target="WIyWlLk6GJQsqaUBKTNV-7">
          <mxGeometry relative="1" as="geometry" />
        </mxCell>
        <mxCell id="WIyWlLk6GJQsqaUBKTNV-6" value="ESS 잔량으로 BSS의&lt;div&gt;모든 배터리의 완충 가능?&lt;/div&gt;" style="rhombus;whiteSpace=wrap;html=1;shadow=0;fontFamily=Helvetica;fontSize=12;align=center;strokeWidth=1;spacing=6;spacingTop=-4;" parent="WIyWlLk6GJQsqaUBKTNV-1" vertex="1">
          <mxGeometry x="229.91" y="417" width="210" height="100" as="geometry" />
        </mxCell>
        <mxCell id="v_3-qDZqE2zjvncGlJnI-44" style="edgeStyle=orthogonalEdgeStyle;rounded=0;orthogonalLoop=1;jettySize=auto;html=1;entryX=1;entryY=0.5;entryDx=0;entryDy=0;" edge="1" parent="WIyWlLk6GJQsqaUBKTNV-1" source="WIyWlLk6GJQsqaUBKTNV-7" target="v_3-qDZqE2zjvncGlJnI-10">
          <mxGeometry relative="1" as="geometry">
            <Array as="points">
              <mxPoint x="564.91" y="672" />
            </Array>
          </mxGeometry>
        </mxCell>
        <mxCell id="WIyWlLk6GJQsqaUBKTNV-7" value="기존 광역적 전력 시스템으로 BSS 전력 충전" style="rounded=1;whiteSpace=wrap;html=1;fontSize=12;glass=0;strokeWidth=1;shadow=0;" parent="WIyWlLk6GJQsqaUBKTNV-1" vertex="1">
          <mxGeometry x="494.91" y="436.69000000000005" width="150" height="60.62" as="geometry" />
        </mxCell>
        <mxCell id="v_3-qDZqE2zjvncGlJnI-7" style="edgeStyle=orthogonalEdgeStyle;rounded=0;orthogonalLoop=1;jettySize=auto;html=1;entryX=0.5;entryY=0;entryDx=0;entryDy=0;" edge="1" parent="WIyWlLk6GJQsqaUBKTNV-1" source="v_3-qDZqE2zjvncGlJnI-1">
          <mxGeometry relative="1" as="geometry">
            <mxPoint x="334.91" y="647" as="targetPoint" />
          </mxGeometry>
        </mxCell>
        <mxCell id="v_3-qDZqE2zjvncGlJnI-1" value="ESS로 BSS에 전력 충전" style="rounded=1;whiteSpace=wrap;html=1;fontSize=12;glass=0;strokeWidth=1;shadow=0;" vertex="1" parent="WIyWlLk6GJQsqaUBKTNV-1">
          <mxGeometry x="259.91" y="557" width="150" height="50" as="geometry" />
        </mxCell>
        <mxCell id="v_3-qDZqE2zjvncGlJnI-8" value="" style="curved=1;endArrow=classic;html=1;rounded=0;" edge="1" parent="WIyWlLk6GJQsqaUBKTNV-1">
          <mxGeometry width="50" height="50" relative="1" as="geometry">
            <mxPoint x="374.91" y="436.69000000000005" as="sourcePoint" />
            <mxPoint x="424.91" y="386.69000000000005" as="targetPoint" />
            <Array as="points">
              <mxPoint x="424.91" y="436.69000000000005" />
              <mxPoint x="374.91" y="386.69000000000005" />
            </Array>
          </mxGeometry>
        </mxCell>
        <mxCell id="v_3-qDZqE2zjvncGlJnI-52" value="301" style="edgeLabel;html=1;align=center;verticalAlign=middle;resizable=0;points=[];" vertex="1" connectable="0" parent="v_3-qDZqE2zjvncGlJnI-8">
          <mxGeometry x="0.9284" relative="1" as="geometry">
            <mxPoint as="offset" />
          </mxGeometry>
        </mxCell>
        <mxCell id="v_3-qDZqE2zjvncGlJnI-9" value="" style="curved=1;endArrow=classic;html=1;rounded=0;" edge="1" parent="WIyWlLk6GJQsqaUBKTNV-1">
          <mxGeometry width="50" height="50" relative="1" as="geometry">
            <mxPoint x="564.91" y="436.69000000000005" as="sourcePoint" />
            <mxPoint x="614.91" y="386.69000000000005" as="targetPoint" />
            <Array as="points">
              <mxPoint x="614.91" y="436.69000000000005" />
              <mxPoint x="564.91" y="386.69000000000005" />
            </Array>
          </mxGeometry>
        </mxCell>
        <mxCell id="v_3-qDZqE2zjvncGlJnI-53" value="302" style="edgeLabel;html=1;align=center;verticalAlign=middle;resizable=0;points=[];" vertex="1" connectable="0" parent="v_3-qDZqE2zjvncGlJnI-9">
          <mxGeometry x="0.9472" y="-1" relative="1" as="geometry">
            <mxPoint as="offset" />
          </mxGeometry>
        </mxCell>
        <mxCell id="v_3-qDZqE2zjvncGlJnI-23" style="edgeStyle=orthogonalEdgeStyle;rounded=0;orthogonalLoop=1;jettySize=auto;html=1;" edge="1" parent="WIyWlLk6GJQsqaUBKTNV-1" source="v_3-qDZqE2zjvncGlJnI-10" target="v_3-qDZqE2zjvncGlJnI-12">
          <mxGeometry relative="1" as="geometry" />
        </mxCell>
        <mxCell id="v_3-qDZqE2zjvncGlJnI-10" value="인터럽트 시간 대기" style="rounded=1;whiteSpace=wrap;html=1;fontSize=12;glass=0;strokeWidth=1;shadow=0;" vertex="1" parent="WIyWlLk6GJQsqaUBKTNV-1">
          <mxGeometry x="259.91" y="647" width="150" height="50" as="geometry" />
        </mxCell>
        <mxCell id="v_3-qDZqE2zjvncGlJnI-25" style="edgeStyle=orthogonalEdgeStyle;rounded=0;orthogonalLoop=1;jettySize=auto;html=1;" edge="1" parent="WIyWlLk6GJQsqaUBKTNV-1" source="v_3-qDZqE2zjvncGlJnI-12">
          <mxGeometry relative="1" as="geometry">
            <mxPoint x="334.91" y="877" as="targetPoint" />
          </mxGeometry>
        </mxCell>
        <mxCell id="v_3-qDZqE2zjvncGlJnI-28" value="YES" style="edgeLabel;html=1;align=center;verticalAlign=middle;resizable=0;points=[];" vertex="1" connectable="0" parent="v_3-qDZqE2zjvncGlJnI-25">
          <mxGeometry x="-0.2333" relative="1" as="geometry">
            <mxPoint x="20" y="5" as="offset" />
          </mxGeometry>
        </mxCell>
        <mxCell id="v_3-qDZqE2zjvncGlJnI-41" style="edgeStyle=orthogonalEdgeStyle;rounded=0;orthogonalLoop=1;jettySize=auto;html=1;entryX=0;entryY=0.5;entryDx=0;entryDy=0;" edge="1" parent="WIyWlLk6GJQsqaUBKTNV-1" source="v_3-qDZqE2zjvncGlJnI-12" target="v_3-qDZqE2zjvncGlJnI-36">
          <mxGeometry relative="1" as="geometry">
            <Array as="points">
              <mxPoint x="174.91" y="787" />
              <mxPoint x="174.91" y="327" />
            </Array>
          </mxGeometry>
        </mxCell>
        <mxCell id="v_3-qDZqE2zjvncGlJnI-42" value="NO" style="edgeLabel;html=1;align=center;verticalAlign=middle;resizable=0;points=[];" vertex="1" connectable="0" parent="v_3-qDZqE2zjvncGlJnI-41">
          <mxGeometry x="-0.9037" y="2" relative="1" as="geometry">
            <mxPoint x="12" y="-12" as="offset" />
          </mxGeometry>
        </mxCell>
        <mxCell id="v_3-qDZqE2zjvncGlJnI-12" value="ESS의 전력 저장량 만족?" style="rhombus;whiteSpace=wrap;html=1;shadow=0;fontFamily=Helvetica;fontSize=12;align=center;strokeWidth=1;spacing=6;spacingTop=-4;" vertex="1" parent="WIyWlLk6GJQsqaUBKTNV-1">
          <mxGeometry x="229.91" y="737" width="210" height="100" as="geometry" />
        </mxCell>
        <mxCell id="v_3-qDZqE2zjvncGlJnI-20" value="NO" style="text;html=1;align=center;verticalAlign=middle;resizable=0;points=[];autosize=1;strokeColor=none;fillColor=none;" vertex="1" parent="WIyWlLk6GJQsqaUBKTNV-1">
          <mxGeometry x="454.91" y="445" width="40" height="30" as="geometry" />
        </mxCell>
        <mxCell id="v_3-qDZqE2zjvncGlJnI-30" value="전력 판매" style="rounded=1;whiteSpace=wrap;html=1;fontSize=12;glass=0;strokeWidth=1;shadow=0;" vertex="1" parent="WIyWlLk6GJQsqaUBKTNV-1">
          <mxGeometry x="289.91" y="877" width="90" height="40" as="geometry" />
        </mxCell>
        <mxCell id="v_3-qDZqE2zjvncGlJnI-37" style="edgeStyle=orthogonalEdgeStyle;rounded=0;orthogonalLoop=1;jettySize=auto;html=1;entryX=0.5;entryY=0;entryDx=0;entryDy=0;" edge="1" parent="WIyWlLk6GJQsqaUBKTNV-1" source="v_3-qDZqE2zjvncGlJnI-36" target="WIyWlLk6GJQsqaUBKTNV-6">
          <mxGeometry relative="1" as="geometry" />
        </mxCell>
        <mxCell id="v_3-qDZqE2zjvncGlJnI-38" value="YES" style="edgeLabel;html=1;align=center;verticalAlign=middle;resizable=0;points=[];" vertex="1" connectable="0" parent="v_3-qDZqE2zjvncGlJnI-37">
          <mxGeometry x="-0.2322" y="1" relative="1" as="geometry">
            <mxPoint x="19" y="17" as="offset" />
          </mxGeometry>
        </mxCell>
        <mxCell id="v_3-qDZqE2zjvncGlJnI-39" style="edgeStyle=orthogonalEdgeStyle;rounded=0;orthogonalLoop=1;jettySize=auto;html=1;" edge="1" parent="WIyWlLk6GJQsqaUBKTNV-1" source="v_3-qDZqE2zjvncGlJnI-36">
          <mxGeometry relative="1" as="geometry">
            <mxPoint x="334.91" y="717" as="targetPoint" />
            <Array as="points">
              <mxPoint x="674.91" y="327" />
              <mxPoint x="674.91" y="717" />
            </Array>
          </mxGeometry>
        </mxCell>
        <mxCell id="v_3-qDZqE2zjvncGlJnI-40" value="NO" style="edgeLabel;html=1;align=center;verticalAlign=middle;resizable=0;points=[];" vertex="1" connectable="0" parent="v_3-qDZqE2zjvncGlJnI-39">
          <mxGeometry x="-0.9348" y="1" relative="1" as="geometry">
            <mxPoint x="-4" y="-9" as="offset" />
          </mxGeometry>
        </mxCell>
        <mxCell id="v_3-qDZqE2zjvncGlJnI-36" value="BSS에 배터리 교환 발생?" style="rhombus;whiteSpace=wrap;html=1;shadow=0;fontFamily=Helvetica;fontSize=12;align=center;strokeWidth=1;spacing=6;spacingTop=-4;" vertex="1" parent="WIyWlLk6GJQsqaUBKTNV-1">
          <mxGeometry x="229.91" y="277" width="210" height="100" as="geometry" />
        </mxCell>
        <mxCell id="v_3-qDZqE2zjvncGlJnI-45" value="" style="curved=1;endArrow=classic;html=1;rounded=0;" edge="1" parent="WIyWlLk6GJQsqaUBKTNV-1">
          <mxGeometry width="50" height="50" relative="1" as="geometry">
            <mxPoint x="374.91" y="297" as="sourcePoint" />
            <mxPoint x="424.91" y="247" as="targetPoint" />
            <Array as="points">
              <mxPoint x="424.91" y="297" />
              <mxPoint x="374.91" y="247" />
            </Array>
          </mxGeometry>
        </mxCell>
        <mxCell id="v_3-qDZqE2zjvncGlJnI-51" value="300" style="edgeLabel;html=1;align=center;verticalAlign=middle;resizable=0;points=[];" vertex="1" connectable="0" parent="v_3-qDZqE2zjvncGlJnI-45">
          <mxGeometry x="0.9518" y="-1" relative="1" as="geometry">
            <mxPoint as="offset" />
          </mxGeometry>
        </mxCell>
        <mxCell id="v_3-qDZqE2zjvncGlJnI-46" value="" style="curved=1;endArrow=classic;html=1;rounded=0;" edge="1" parent="WIyWlLk6GJQsqaUBKTNV-1">
          <mxGeometry width="50" height="50" relative="1" as="geometry">
            <mxPoint x="409.91" y="577" as="sourcePoint" />
            <mxPoint x="459.91" y="527" as="targetPoint" />
            <Array as="points">
              <mxPoint x="459.91" y="577" />
              <mxPoint x="409.91" y="527" />
            </Array>
          </mxGeometry>
        </mxCell>
        <mxCell id="v_3-qDZqE2zjvncGlJnI-54" value="303" style="edgeLabel;html=1;align=center;verticalAlign=middle;resizable=0;points=[];" vertex="1" connectable="0" parent="v_3-qDZqE2zjvncGlJnI-46">
          <mxGeometry x="0.9495" relative="1" as="geometry">
            <mxPoint as="offset" />
          </mxGeometry>
        </mxCell>
        <mxCell id="v_3-qDZqE2zjvncGlJnI-47" value="" style="curved=1;endArrow=classic;html=1;rounded=0;" edge="1" parent="WIyWlLk6GJQsqaUBKTNV-1">
          <mxGeometry width="50" height="50" relative="1" as="geometry">
            <mxPoint x="409.91" y="657" as="sourcePoint" />
            <mxPoint x="459.91" y="607" as="targetPoint" />
            <Array as="points">
              <mxPoint x="459.91" y="657" />
              <mxPoint x="409.91" y="607" />
            </Array>
          </mxGeometry>
        </mxCell>
        <mxCell id="v_3-qDZqE2zjvncGlJnI-55" value="304" style="edgeLabel;html=1;align=center;verticalAlign=middle;resizable=0;points=[];" vertex="1" connectable="0" parent="v_3-qDZqE2zjvncGlJnI-47">
          <mxGeometry x="0.9401" relative="1" as="geometry">
            <mxPoint as="offset" />
          </mxGeometry>
        </mxCell>
        <mxCell id="v_3-qDZqE2zjvncGlJnI-48" value="" style="curved=1;endArrow=classic;html=1;rounded=0;" edge="1" parent="WIyWlLk6GJQsqaUBKTNV-1">
          <mxGeometry width="50" height="50" relative="1" as="geometry">
            <mxPoint x="439.91" y="787" as="sourcePoint" />
            <mxPoint x="489.91" y="737" as="targetPoint" />
            <Array as="points">
              <mxPoint x="489.91" y="787" />
              <mxPoint x="439.91" y="737" />
            </Array>
          </mxGeometry>
        </mxCell>
        <mxCell id="v_3-qDZqE2zjvncGlJnI-56" value="305" style="edgeLabel;html=1;align=center;verticalAlign=middle;resizable=0;points=[];" vertex="1" connectable="0" parent="v_3-qDZqE2zjvncGlJnI-48">
          <mxGeometry x="0.9261" y="2" relative="1" as="geometry">
            <mxPoint as="offset" />
          </mxGeometry>
        </mxCell>
        <mxCell id="v_3-qDZqE2zjvncGlJnI-50" value="" style="curved=1;endArrow=classic;html=1;rounded=0;" edge="1" parent="WIyWlLk6GJQsqaUBKTNV-1">
          <mxGeometry width="50" height="50" relative="1" as="geometry">
            <mxPoint x="379.91" y="887" as="sourcePoint" />
            <mxPoint x="429.91" y="837" as="targetPoint" />
            <Array as="points">
              <mxPoint x="429.91" y="887" />
              <mxPoint x="379.91" y="837" />
            </Array>
          </mxGeometry>
        </mxCell>
        <mxCell id="v_3-qDZqE2zjvncGlJnI-57" value="306" style="edgeLabel;html=1;align=center;verticalAlign=middle;resizable=0;points=[];" vertex="1" connectable="0" parent="v_3-qDZqE2zjvncGlJnI-50">
          <mxGeometry x="0.9495" relative="1" as="geometry">
            <mxPoint as="offset" />
          </mxGeometry>
        </mxCell>
      </root>
    </mxGraphModel>
  </diagram>
</mxfile>
